<svg xmlns="http://www.w3.org/2000/svg" version="1.1" width="600" height="100">
  <path
    fill="none"
    stroke="black"
    stroke-width="5"
    d="M50,50 C50,25 75,25 75,50 S100,75 100,50 C100,25 125,25 125,50 S150,75 150,50 C150,25 175,25 175,50 S200,75 200,50 C200,25 225,25 225,50 S250,75 250,50 C250,25 275,25 275,50 S300,75 300,50 C300,25 325,25 325,50 S350,75 350,50 C350,25 375,25 375,50 S400,75 400,50 C400,25 425,25 425,50 S450,75 450,50 C450,25 475,25 475,50 S500,75 500,50 C500,25 525,25 525,50 S550,75 550,50"
  />
  <path
    fill="none"
    stroke="black"
    stroke-width="5"
    d="M50,60 C50,35 75,35 75,60 S100,85 100,60 C100,35 125,35 125,60 S150,85 150,60 C150,35 175,35 175,60 S200,85 200,60 C200,35 225,35 225,60 S250,85 250,60 C250,35 275,35 275,60 S300,85 300,60 C300,35 325,35 325,60 S350,85 350,60 C350,35 375,35 375,60 S400,85 400,60 C400,35 425,35 425,60 S450,85 450,60"
  />
  <path
    fill="none"
    stroke="black"
    stroke-width="5"
    d="M50,70 C50,45 75,45 75,70 S100,95 100,70 C100,45 125,45 125,70 S150,95 150,70 C150,45 175,45 175,70 S200,95 200,70 C200,45 225,45 225,70 S250,95 250,70 C250,45 275,45 275,70 S300,95 300,70"
  />
  <path
    fill="none"
    stroke="black"
    stroke-width="5"
    d="M50,80 C50,55 75,55 75,80 S100,105 100,80 C100,55 125,55 125,80 S150,105 150,80 C150,55 175,55 175,80 S200,105 200,80"
  />
</svg>